<svg xmlns="http://www.w3.org/2000/svg" xmlns:xlink="http://www.w3.org/1999/xlink" width="848" zoomAndPan="magnify" viewBox="0 0 636 262.499992" height="350" preserveAspectRatio="xMidYMid meet" version="1.0"><defs><g/><clipPath id="8f9d4919bd"><path d="M 0.605469 11 L 635.394531 11 L 635.394531 262 L 0.605469 262 Z M 0.605469 11 " clip-rule="nonzero"/></clipPath></defs><g clip-path="url(#8f9d4919bd)"><path stroke-linecap="butt" transform="matrix(1.472956, 0, 0, 1.472956, 2.489534, -21.427497)" fill="none" stroke-linejoin="miter" d="M 59.589142 125.654632 L 59.589142 93.098925 L 50.410639 93.098925 L 50.410639 125.654632 Z M 50.410639 138.95166 L 50.410639 176.999618 L 37.079135 176.999618 L 37.079135 86.415935 C 37.079135 84.657672 37.739478 83.11422 39.065468 81.790882 C 40.415326 80.441024 41.969386 79.767421 43.727649 79.767421 L 66.237656 79.767421 C 68.019786 79.767421 69.573847 80.441024 70.897185 81.790882 C 72.223175 83.11422 72.88617 84.657672 72.88617 86.415935 L 72.88617 176.999618 L 59.589142 176.999618 L 59.589142 138.95166 Z M 108.56591 176.999618 C 106.783779 176.999618 105.229719 176.336623 103.903729 175.013285 C 102.580391 173.663427 101.917396 172.109367 101.917396 170.351104 L 101.917396 155.969416 C 101.917396 154.211154 101.241141 152.670353 99.893935 151.347015 C 98.567945 149.997157 97.013885 149.323554 95.231754 149.323554 L 92.738893 149.323554 L 92.738893 176.999618 L 79.407389 176.999618 L 79.407389 86.415935 C 79.407389 84.657672 80.067732 83.11422 81.393722 81.790882 C 82.74358 80.441024 84.294988 79.767421 86.053251 79.767421 L 108.56591 79.767421 C 110.34804 79.767421 111.902101 80.441024 113.225439 81.790882 C 114.551429 83.11422 115.214424 84.657672 115.214424 86.415935 L 115.214424 132.303146 C 115.214424 134.085277 114.551429 135.639337 113.225439 136.965327 C 111.902101 138.288665 110.34804 138.95166 108.56591 138.95166 C 110.443512 138.95166 112.02144 139.601395 113.299694 140.903518 C 114.575297 142.17912 115.214424 143.757048 115.214424 145.637302 L 115.214424 163.668115 L 119.370077 163.668115 L 119.370077 176.999618 Z M 101.917396 93.098925 L 92.738893 93.098925 L 92.738893 125.654632 L 101.917396 125.654632 Z M 134.921288 138.95166 L 134.921288 163.668115 L 144.24565 163.668115 L 144.24565 153.476555 L 157.542678 153.476555 L 157.542678 170.351104 C 157.542678 172.109367 156.879683 173.663427 155.553693 175.013285 C 154.230355 176.336623 152.676294 176.999618 150.894164 176.999618 L 128.238298 176.999618 C 126.456167 176.999618 124.902107 176.336623 123.576117 175.013285 C 122.252779 173.663427 121.589784 172.109367 121.589784 170.351104 L 121.589784 86.559142 C 121.589784 84.800879 122.252779 83.260079 123.576117 81.934089 C 124.902107 80.586883 126.456167 79.910628 128.238298 79.910628 L 150.894164 79.910628 C 152.676294 79.910628 154.230355 80.586883 155.553693 81.934089 C 156.879683 83.260079 157.542678 84.800879 157.542678 86.559142 L 157.542678 115.428597 L 144.24565 115.428597 L 144.24565 93.244784 L 134.921288 93.244784 L 134.921288 125.654632 L 144.677922 125.654632 L 144.677922 138.95166 Z M 186.573903 176.999618 L 186.573903 93.098925 L 177.3954 93.098925 L 177.3954 176.999618 L 164.061245 176.999618 L 164.061245 86.415935 C 164.061245 84.657672 164.72424 83.11422 166.05023 81.790882 C 167.397436 80.441024 168.951496 79.767421 170.709759 79.767421 L 193.222418 79.767421 C 195.004548 79.767421 196.558608 80.441024 197.881946 81.790882 C 199.207937 83.11422 199.870932 84.657672 199.870932 86.415935 L 199.870932 176.999618 Z M 228.902157 125.654632 L 228.902157 93.098925 L 219.723654 93.098925 L 219.723654 125.654632 Z M 219.723654 138.95166 L 219.723654 176.999618 L 206.389499 176.999618 L 206.389499 86.415935 C 206.389499 84.657672 207.052494 83.11422 208.378484 81.790882 C 209.725689 80.441024 211.27975 79.767421 213.038013 79.767421 L 235.548019 79.767421 C 237.332802 79.767421 238.886862 80.441024 240.2102 81.790882 C 241.53619 83.11422 242.196533 84.657672 242.196533 86.415935 L 242.196533 176.999618 L 228.902157 176.999618 L 228.902157 138.95166 Z M 295.488073 176.999618 C 293.705942 176.999618 292.151882 176.336623 290.828544 175.013285 C 289.502554 173.663427 288.839559 172.109367 288.839559 170.351104 L 288.839559 155.969416 C 288.839559 154.211154 288.165956 152.670353 286.81875 151.347015 C 285.49276 149.997157 283.9387 149.323554 282.156569 149.323554 L 279.663708 149.323554 L 279.663708 176.999618 L 266.329552 176.999618 L 266.329552 86.415935 C 266.329552 84.657672 266.992547 83.11422 268.318537 81.790882 C 269.665743 80.441024 271.219803 79.767421 272.978066 79.767421 L 295.488073 79.767421 C 297.272856 79.767421 298.826916 80.441024 300.150254 81.790882 C 301.476244 83.11422 302.136587 84.657672 302.136587 86.415935 L 302.136587 132.303146 C 302.136587 134.085277 301.476244 135.639337 300.150254 136.965327 C 298.826916 138.288665 297.272856 138.95166 295.488073 138.95166 C 297.368327 138.95166 298.946255 139.601395 300.221857 140.903518 C 301.500112 142.17912 302.136587 143.757048 302.136587 145.637302 L 302.136587 163.668115 L 306.29224 163.668115 L 306.29224 176.999618 Z M 288.839559 93.098925 L 279.663708 93.098925 L 279.663708 125.654632 L 288.839559 125.654632 Z M 344.464841 132.303146 C 344.464841 134.085277 343.804498 135.639337 342.478508 136.965327 C 341.152518 138.288665 339.601109 138.95166 337.816327 138.95166 L 321.991962 138.95166 L 321.991962 176.999618 L 308.657806 176.999618 L 308.657806 86.415935 C 308.657806 84.657672 309.320801 83.11422 310.646791 81.790882 C 311.993997 80.441024 313.548057 79.767421 315.30632 79.767421 L 337.816327 79.767421 C 339.601109 79.767421 341.152518 80.441024 342.478508 81.790882 C 343.804498 83.11422 344.464841 84.657672 344.464841 86.415935 Z M 331.167813 93.098925 L 321.991962 93.098925 L 321.991962 125.654632 L 331.167813 125.654632 Z M 386.793095 170.351104 C 386.793095 172.109367 386.1301 173.663427 384.806762 175.013285 C 383.480772 176.336623 381.926711 176.999618 380.144581 176.999618 L 357.491367 176.999618 C 355.706584 176.999618 354.152524 176.336623 352.829186 175.013285 C 351.503196 173.663427 350.842853 172.109367 350.842853 170.351104 L 350.842853 86.559142 C 350.842853 84.800879 351.503196 83.260079 352.829186 81.934089 C 354.152524 80.586883 355.706584 79.910628 357.491367 79.910628 L 380.144581 79.910628 C 381.926711 79.910628 383.480772 80.586883 384.806762 81.934089 C 386.1301 83.260079 386.793095 84.800879 386.793095 86.559142 L 386.793095 115.428597 L 373.496067 115.428597 L 373.496067 93.244784 L 364.174357 93.244784 L 364.174357 163.668115 L 373.496067 163.668115 L 373.496067 132.303146 L 366.378152 132.303146 L 366.378152 118.971642 L 380.144581 118.971642 C 381.926711 118.971642 383.480772 119.645245 384.806762 120.995103 C 386.1301 122.318441 386.793095 123.872502 386.793095 125.654632 Z M 386.793095 170.351104 " stroke="#000000" stroke-width="10.175" stroke-opacity="1" stroke-miterlimit="4"/></g><g fill="#979797" fill-opacity="0.902"><g transform="translate(57.273131, 242.097244)"><g><path d="M 33.03125 -75.40625 L 33.03125 -123.203125 L 19.5625 -123.203125 L 19.5625 -75.40625 Z M 19.5625 -55.84375 L 19.5625 0 L 0 0 L 0 -132.984375 C 0 -135.585938 0.972656 -137.867188 2.921875 -139.828125 C 4.878906 -141.785156 7.164062 -142.765625 9.78125 -142.765625 L 42.8125 -142.765625 C 45.414062 -142.765625 47.691406 -141.785156 49.640625 -139.828125 C 51.597656 -137.867188 52.578125 -135.585938 52.578125 -132.984375 L 52.578125 0 L 33.03125 0 L 33.03125 -55.84375 Z M 19.5625 -55.84375 "/></g></g></g><g fill="#979797" fill-opacity="0.902"><g transform="translate(119.416615, 242.097244)"><g><path d="M 42.8125 0 C 40.195312 0 37.910156 -0.972656 35.953125 -2.921875 C 34.003906 -4.878906 33.03125 -7.164062 33.03125 -9.78125 L 33.03125 -30.859375 C 33.03125 -33.460938 32.050781 -35.742188 30.09375 -37.703125 C 28.132812 -39.660156 25.851562 -40.640625 23.25 -40.640625 L 19.5625 -40.640625 L 19.5625 0 L 0 0 L 0 -132.984375 C 0 -135.585938 0.972656 -137.867188 2.921875 -139.828125 C 4.878906 -141.785156 7.164062 -142.765625 9.78125 -142.765625 L 42.8125 -142.765625 C 45.414062 -142.765625 47.691406 -141.785156 49.640625 -139.828125 C 51.597656 -137.867188 52.578125 -135.585938 52.578125 -132.984375 L 52.578125 -65.625 C 52.578125 -63.019531 51.597656 -60.738281 49.640625 -58.78125 C 47.691406 -56.820312 45.414062 -55.84375 42.8125 -55.84375 C 45.5625 -55.84375 47.875 -54.898438 49.75 -53.015625 C 51.632812 -51.140625 52.578125 -48.820312 52.578125 -46.0625 L 52.578125 -19.5625 L 58.671875 -19.5625 L 58.671875 0 Z M 33.03125 -123.203125 L 19.5625 -123.203125 L 19.5625 -75.40625 L 33.03125 -75.40625 Z M 33.03125 -123.203125 "/></g></g></g><g fill="#979797" fill-opacity="0.902"><g transform="translate(181.560099, 242.097244)"><g><path d="M 19.34375 -55.84375 L 19.34375 -19.5625 L 33.03125 -19.5625 L 33.03125 -34.546875 L 52.578125 -34.546875 L 52.578125 -9.78125 C 52.578125 -7.164062 51.597656 -4.878906 49.640625 -2.921875 C 47.691406 -0.972656 45.414062 0 42.8125 0 L 9.5625 0 C 6.957031 0 4.675781 -0.972656 2.71875 -2.921875 C 0.757812 -4.878906 -0.21875 -7.164062 -0.21875 -9.78125 L -0.21875 -132.765625 C -0.21875 -135.378906 0.757812 -137.660156 2.71875 -139.609375 C 4.675781 -141.566406 6.957031 -142.546875 9.5625 -142.546875 L 42.8125 -142.546875 C 45.414062 -142.546875 47.691406 -141.566406 49.640625 -139.609375 C 51.597656 -137.660156 52.578125 -135.378906 52.578125 -132.765625 L 52.578125 -90.390625 L 33.03125 -90.390625 L 33.03125 -122.984375 L 19.34375 -122.984375 L 19.34375 -75.40625 L 33.6875 -75.40625 L 33.6875 -55.84375 Z M 19.34375 -55.84375 "/></g></g></g><g fill="#979797" fill-opacity="0.902"><g transform="translate(243.703589, 242.097244)"><g><path d="M 33.03125 0 L 33.03125 -123.203125 L 19.5625 -123.203125 L 19.5625 0 L 0 0 L 0 -132.984375 C 0 -135.585938 0.972656 -137.867188 2.921875 -139.828125 C 4.878906 -141.785156 7.164062 -142.765625 9.78125 -142.765625 L 42.8125 -142.765625 C 45.414062 -142.765625 47.691406 -141.785156 49.640625 -139.828125 C 51.597656 -137.867188 52.578125 -135.585938 52.578125 -132.984375 L 52.578125 0 Z M 33.03125 0 "/></g></g></g><g fill="#979797" fill-opacity="0.902"><g transform="translate(305.847067, 242.097244)"><g><path d="M 33.03125 -75.40625 L 33.03125 -123.203125 L 19.5625 -123.203125 L 19.5625 -75.40625 Z M 19.5625 -55.84375 L 19.5625 0 L 0 0 L 0 -132.984375 C 0 -135.585938 0.972656 -137.867188 2.921875 -139.828125 C 4.878906 -141.785156 7.164062 -142.765625 9.78125 -142.765625 L 42.8125 -142.765625 C 45.414062 -142.765625 47.691406 -141.785156 49.640625 -139.828125 C 51.597656 -137.867188 52.578125 -135.585938 52.578125 -132.984375 L 52.578125 0 L 33.03125 0 L 33.03125 -55.84375 Z M 19.5625 -55.84375 "/></g></g></g><g fill="#979797" fill-opacity="0.902"><g transform="translate(367.990545, 242.097244)"><g/></g></g><g fill="#979797" fill-opacity="0.902"><g transform="translate(393.847626, 242.097244)"><g><path d="M 42.8125 0 C 40.195312 0 37.910156 -0.972656 35.953125 -2.921875 C 34.003906 -4.878906 33.03125 -7.164062 33.03125 -9.78125 L 33.03125 -30.859375 C 33.03125 -33.460938 32.050781 -35.742188 30.09375 -37.703125 C 28.132812 -39.660156 25.851562 -40.640625 23.25 -40.640625 L 19.5625 -40.640625 L 19.5625 0 L 0 0 L 0 -132.984375 C 0 -135.585938 0.972656 -137.867188 2.921875 -139.828125 C 4.878906 -141.785156 7.164062 -142.765625 9.78125 -142.765625 L 42.8125 -142.765625 C 45.414062 -142.765625 47.691406 -141.785156 49.640625 -139.828125 C 51.597656 -137.867188 52.578125 -135.585938 52.578125 -132.984375 L 52.578125 -65.625 C 52.578125 -63.019531 51.597656 -60.738281 49.640625 -58.78125 C 47.691406 -56.820312 45.414062 -55.84375 42.8125 -55.84375 C 45.5625 -55.84375 47.875 -54.898438 49.75 -53.015625 C 51.632812 -51.140625 52.578125 -48.820312 52.578125 -46.0625 L 52.578125 -19.5625 L 58.671875 -19.5625 L 58.671875 0 Z M 33.03125 -123.203125 L 19.5625 -123.203125 L 19.5625 -75.40625 L 33.03125 -75.40625 Z M 33.03125 -123.203125 "/></g></g></g><g fill="#979797" fill-opacity="0.902"><g transform="translate(455.991104, 242.097244)"><g><path d="M 52.578125 -65.625 C 52.578125 -63.019531 51.597656 -60.738281 49.640625 -58.78125 C 47.691406 -56.820312 45.414062 -55.84375 42.8125 -55.84375 L 19.5625 -55.84375 L 19.5625 0 L 0 0 L 0 -132.984375 C 0 -135.585938 0.972656 -137.867188 2.921875 -139.828125 C 4.878906 -141.785156 7.164062 -142.765625 9.78125 -142.765625 L 42.8125 -142.765625 C 45.414062 -142.765625 47.691406 -141.785156 49.640625 -139.828125 C 51.597656 -137.867188 52.578125 -135.585938 52.578125 -132.984375 Z M 33.03125 -123.203125 L 19.5625 -123.203125 L 19.5625 -75.40625 L 33.03125 -75.40625 Z M 33.03125 -123.203125 "/></g></g></g><g fill="#979797" fill-opacity="0.902"><g transform="translate(518.134582, 242.097244)"><g><path d="M 52.578125 -9.78125 C 52.578125 -7.164062 51.597656 -4.878906 49.640625 -2.921875 C 47.691406 -0.972656 45.414062 0 42.8125 0 L 9.5625 0 C 6.957031 0 4.675781 -0.972656 2.71875 -2.921875 C 0.757812 -4.878906 -0.21875 -7.164062 -0.21875 -9.78125 L -0.21875 -132.765625 C -0.21875 -135.378906 0.757812 -137.660156 2.71875 -139.609375 C 4.675781 -141.566406 6.957031 -142.546875 9.5625 -142.546875 L 42.8125 -142.546875 C 45.414062 -142.546875 47.691406 -141.566406 49.640625 -139.609375 C 51.597656 -137.660156 52.578125 -135.378906 52.578125 -132.765625 L 52.578125 -90.390625 L 33.03125 -90.390625 L 33.03125 -122.984375 L 19.34375 -122.984375 L 19.34375 -19.5625 L 33.03125 -19.5625 L 33.03125 -65.625 L 22.59375 -65.625 L 22.59375 -85.1875 L 42.8125 -85.1875 C 45.414062 -85.1875 47.691406 -84.207031 49.640625 -82.25 C 51.597656 -80.289062 52.578125 -78.007812 52.578125 -75.40625 Z M 52.578125 -9.78125 "/></g></g></g><g fill="#ffffff" fill-opacity="1"><g transform="translate(54.392084, 239.216195)"><g><path d="M 33.03125 -75.40625 L 33.03125 -123.203125 L 19.5625 -123.203125 L 19.5625 -75.40625 Z M 19.5625 -55.84375 L 19.5625 0 L 0 0 L 0 -132.984375 C 0 -135.585938 0.972656 -137.867188 2.921875 -139.828125 C 4.878906 -141.785156 7.164062 -142.765625 9.78125 -142.765625 L 42.8125 -142.765625 C 45.414062 -142.765625 47.691406 -141.785156 49.640625 -139.828125 C 51.597656 -137.867188 52.578125 -135.585938 52.578125 -132.984375 L 52.578125 0 L 33.03125 0 L 33.03125 -55.84375 Z M 19.5625 -55.84375 "/></g></g></g><g fill="#ffffff" fill-opacity="1"><g transform="translate(116.535568, 239.216195)"><g><path d="M 42.8125 0 C 40.195312 0 37.910156 -0.972656 35.953125 -2.921875 C 34.003906 -4.878906 33.03125 -7.164062 33.03125 -9.78125 L 33.03125 -30.859375 C 33.03125 -33.460938 32.050781 -35.742188 30.09375 -37.703125 C 28.132812 -39.660156 25.851562 -40.640625 23.25 -40.640625 L 19.5625 -40.640625 L 19.5625 0 L 0 0 L 0 -132.984375 C 0 -135.585938 0.972656 -137.867188 2.921875 -139.828125 C 4.878906 -141.785156 7.164062 -142.765625 9.78125 -142.765625 L 42.8125 -142.765625 C 45.414062 -142.765625 47.691406 -141.785156 49.640625 -139.828125 C 51.597656 -137.867188 52.578125 -135.585938 52.578125 -132.984375 L 52.578125 -65.625 C 52.578125 -63.019531 51.597656 -60.738281 49.640625 -58.78125 C 47.691406 -56.820312 45.414062 -55.84375 42.8125 -55.84375 C 45.5625 -55.84375 47.875 -54.898438 49.75 -53.015625 C 51.632812 -51.140625 52.578125 -48.820312 52.578125 -46.0625 L 52.578125 -19.5625 L 58.671875 -19.5625 L 58.671875 0 Z M 33.03125 -123.203125 L 19.5625 -123.203125 L 19.5625 -75.40625 L 33.03125 -75.40625 Z M 33.03125 -123.203125 "/></g></g></g><g fill="#ffffff" fill-opacity="1"><g transform="translate(178.679052, 239.216195)"><g><path d="M 19.34375 -55.84375 L 19.34375 -19.5625 L 33.03125 -19.5625 L 33.03125 -34.546875 L 52.578125 -34.546875 L 52.578125 -9.78125 C 52.578125 -7.164062 51.597656 -4.878906 49.640625 -2.921875 C 47.691406 -0.972656 45.414062 0 42.8125 0 L 9.5625 0 C 6.957031 0 4.675781 -0.972656 2.71875 -2.921875 C 0.757812 -4.878906 -0.21875 -7.164062 -0.21875 -9.78125 L -0.21875 -132.765625 C -0.21875 -135.378906 0.757812 -137.660156 2.71875 -139.609375 C 4.675781 -141.566406 6.957031 -142.546875 9.5625 -142.546875 L 42.8125 -142.546875 C 45.414062 -142.546875 47.691406 -141.566406 49.640625 -139.609375 C 51.597656 -137.660156 52.578125 -135.378906 52.578125 -132.765625 L 52.578125 -90.390625 L 33.03125 -90.390625 L 33.03125 -122.984375 L 19.34375 -122.984375 L 19.34375 -75.40625 L 33.6875 -75.40625 L 33.6875 -55.84375 Z M 19.34375 -55.84375 "/></g></g></g><g fill="#ffffff" fill-opacity="1"><g transform="translate(240.822542, 239.216195)"><g><path d="M 33.03125 0 L 33.03125 -123.203125 L 19.5625 -123.203125 L 19.5625 0 L 0 0 L 0 -132.984375 C 0 -135.585938 0.972656 -137.867188 2.921875 -139.828125 C 4.878906 -141.785156 7.164062 -142.765625 9.78125 -142.765625 L 42.8125 -142.765625 C 45.414062 -142.765625 47.691406 -141.785156 49.640625 -139.828125 C 51.597656 -137.867188 52.578125 -135.585938 52.578125 -132.984375 L 52.578125 0 Z M 33.03125 0 "/></g></g></g><g fill="#ffffff" fill-opacity="1"><g transform="translate(302.96602, 239.216195)"><g><path d="M 33.03125 -75.40625 L 33.03125 -123.203125 L 19.5625 -123.203125 L 19.5625 -75.40625 Z M 19.5625 -55.84375 L 19.5625 0 L 0 0 L 0 -132.984375 C 0 -135.585938 0.972656 -137.867188 2.921875 -139.828125 C 4.878906 -141.785156 7.164062 -142.765625 9.78125 -142.765625 L 42.8125 -142.765625 C 45.414062 -142.765625 47.691406 -141.785156 49.640625 -139.828125 C 51.597656 -137.867188 52.578125 -135.585938 52.578125 -132.984375 L 52.578125 0 L 33.03125 0 L 33.03125 -55.84375 Z M 19.5625 -55.84375 "/></g></g></g><g fill="#ffffff" fill-opacity="1"><g transform="translate(365.109498, 239.216195)"><g/></g></g><g fill="#ffffff" fill-opacity="1"><g transform="translate(390.966578, 239.216195)"><g><path d="M 42.8125 0 C 40.195312 0 37.910156 -0.972656 35.953125 -2.921875 C 34.003906 -4.878906 33.03125 -7.164062 33.03125 -9.78125 L 33.03125 -30.859375 C 33.03125 -33.460938 32.050781 -35.742188 30.09375 -37.703125 C 28.132812 -39.660156 25.851562 -40.640625 23.25 -40.640625 L 19.5625 -40.640625 L 19.5625 0 L 0 0 L 0 -132.984375 C 0 -135.585938 0.972656 -137.867188 2.921875 -139.828125 C 4.878906 -141.785156 7.164062 -142.765625 9.78125 -142.765625 L 42.8125 -142.765625 C 45.414062 -142.765625 47.691406 -141.785156 49.640625 -139.828125 C 51.597656 -137.867188 52.578125 -135.585938 52.578125 -132.984375 L 52.578125 -65.625 C 52.578125 -63.019531 51.597656 -60.738281 49.640625 -58.78125 C 47.691406 -56.820312 45.414062 -55.84375 42.8125 -55.84375 C 45.5625 -55.84375 47.875 -54.898438 49.75 -53.015625 C 51.632812 -51.140625 52.578125 -48.820312 52.578125 -46.0625 L 52.578125 -19.5625 L 58.671875 -19.5625 L 58.671875 0 Z M 33.03125 -123.203125 L 19.5625 -123.203125 L 19.5625 -75.40625 L 33.03125 -75.40625 Z M 33.03125 -123.203125 "/></g></g></g><g fill="#ffffff" fill-opacity="1"><g transform="translate(453.110056, 239.216195)"><g><path d="M 52.578125 -65.625 C 52.578125 -63.019531 51.597656 -60.738281 49.640625 -58.78125 C 47.691406 -56.820312 45.414062 -55.84375 42.8125 -55.84375 L 19.5625 -55.84375 L 19.5625 0 L 0 0 L 0 -132.984375 C 0 -135.585938 0.972656 -137.867188 2.921875 -139.828125 C 4.878906 -141.785156 7.164062 -142.765625 9.78125 -142.765625 L 42.8125 -142.765625 C 45.414062 -142.765625 47.691406 -141.785156 49.640625 -139.828125 C 51.597656 -137.867188 52.578125 -135.585938 52.578125 -132.984375 Z M 33.03125 -123.203125 L 19.5625 -123.203125 L 19.5625 -75.40625 L 33.03125 -75.40625 Z M 33.03125 -123.203125 "/></g></g></g><g fill="#ffffff" fill-opacity="1"><g transform="translate(515.253535, 239.216195)"><g><path d="M 52.578125 -9.78125 C 52.578125 -7.164062 51.597656 -4.878906 49.640625 -2.921875 C 47.691406 -0.972656 45.414062 0 42.8125 0 L 9.5625 0 C 6.957031 0 4.675781 -0.972656 2.71875 -2.921875 C 0.757812 -4.878906 -0.21875 -7.164062 -0.21875 -9.78125 L -0.21875 -132.765625 C -0.21875 -135.378906 0.757812 -137.660156 2.71875 -139.609375 C 4.675781 -141.566406 6.957031 -142.546875 9.5625 -142.546875 L 42.8125 -142.546875 C 45.414062 -142.546875 47.691406 -141.566406 49.640625 -139.609375 C 51.597656 -137.660156 52.578125 -135.378906 52.578125 -132.765625 L 52.578125 -90.390625 L 33.03125 -90.390625 L 33.03125 -122.984375 L 19.34375 -122.984375 L 19.34375 -19.5625 L 33.03125 -19.5625 L 33.03125 -65.625 L 22.59375 -65.625 L 22.59375 -85.1875 L 42.8125 -85.1875 C 45.414062 -85.1875 47.691406 -84.207031 49.640625 -82.25 C 51.597656 -80.289062 52.578125 -78.007812 52.578125 -75.40625 Z M 52.578125 -9.78125 "/></g></g></g></svg>